<?xml version="1.0" encoding="iso-8859-1"?>
<!-- Generator: Adobe Illustrator 19.0.0, SVG Export Plug-In . SVG Version: 6.00 Build 0)  -->
<svg version="1.1" id="Layer_1" xmlns="http://www.w3.org/2000/svg" xmlns:xlink="http://www.w3.org/1999/xlink" x="0px" y="0px"
	 viewBox="0 0 473.935 473.935" style="enable-background:new 0 0 473.935 473.935;" xml:space="preserve">
<circle style="fill:#357180;" cx="236.967" cy="236.967" r="236.967"/>
<g>
	<path style="fill:#49A0AE;" d="M313.513,171.262c-32.093-32.09-84.127-32.09-116.224,0c-32.097,32.105-32.097,84.138,0,116.231
		c32.093,32.097,84.127,32.097,116.224,0C345.61,255.399,345.61,203.366,313.513,171.262z M291.422,265.405
		c-19.888,19.884-52.146,19.884-72.041,0c-19.891-19.899-19.891-52.153,0-72.044c19.895-19.899,52.153-19.899,72.041,0
		C311.317,213.256,311.317,245.506,291.422,265.405z"/>
	<path style="fill:#49A0AE;" d="M291.373,192.893c12.127,12.116,25.859-7.921,33.455-15.513
		c7.259-7.263,25.336-25.332,32.602-32.602c0.674,7.6,1.998,37.029,3.109,44.55c1.777,11.955,16.587,16.423,22.039,5.89
		c0.565-0.745,0.924-1.688,1.074-2.791c0.247-1.01,0.251-1.949,0.056-2.784c-0.198-9.852-0.988-41.534-1.186-51.39
		c-0.187-9.594,1.115-20.037-2.406-29.059c-0.131-0.505-0.318-1.029-0.584-1.557c-0.711-1.418-2.47-2.72-4.172-3.098
		c-8.311-3.143-17.519-2.099-26.406-2.279c-11.038-0.221-43.768-0.49-54.802-0.707c-12.771-0.262-13.208,16.138-3.903,21.601
		c4.659,2.705,33.826,2.462,39.004,2.99c3.315,0.344,6.642,0.659,9.968,0.98c-7.218,7.222-25.235,25.242-32.456,32.456
		C299.182,167.161,279.283,180.799,291.373,192.893z"/>
</g>
<path style="fill:#459CA5;" d="M219.381,193.361c19.869-19.873,52.048-19.891,71.951-0.086l87.075-87.064l0.011-0.022
	c-0.849-0.79-1.961-1.411-3.053-1.65c-8.311-3.143-17.519-2.099-26.406-2.279c-11.038-0.221-43.768-0.49-54.802-0.707
	c-12.771-0.262-13.208,16.138-3.903,21.601c4.659,2.705,33.826,2.462,39.004,2.99c3.315,0.344,6.642,0.659,9.968,0.98
	c-7.218,7.222-25.235,25.242-32.456,32.456c-0.962,0.973-2.125,2.032-3.398,3.181c-32.123-23.173-77.167-20.404-106.076,8.505
	c-32.063,32.075-32.09,84.037-0.082,116.141l22.092-22.092C199.49,245.409,199.516,213.226,219.381,193.361z"/>
<g>
	<path style="fill:#EB9682;" d="M135.501,324.559c-2.84-2.836-13.744-14.002-13.545-13.803c0.041-0.045,20.894-20.632,20.894-20.632
		s11.749-10.376,16.198-20.348c0.359-0.804-13.684-13.8-13.684-13.8c-10.05,4.445-20.576,16.34-20.576,16.34
		c-6.896,6.892-20.763,20.501-20.763,20.501c-5.175-5.175-10.043-10.043-13.036-13.036c-7.577-7.577-15.757-22.013-27.846-9.923
		c-12.12,12.123,2.451,20.389,10.05,27.985c2.84,2.844,12.774,13.036,12.774,13.036c-5.298,5.298-1.504,1.504-4.561,4.569
		c-7.581,7.577-27.39,21.122-15.304,33.208c12.127,12.131,25.77-7.813,33.362-15.412c3.042-3.035-0.812,0.812,4.43-4.43
		c5.467,5.474,10.668,10.672,13.815,13.818c7.577,7.577,15.753,22.013,27.846,9.916
		C157.671,340.432,143.097,332.159,135.501,324.559z"/>
	<path style="fill:#EB9682;" d="M247.841,166.693c-32.093-32.097-84.127-32.097-116.227,0c-32.093,32.097-32.093,84.13,0,116.224
		c32.097,32.097,84.13,32.097,116.227,0C279.938,250.827,279.938,198.79,247.841,166.693z M225.761,260.814
		c-19.891,19.891-52.146,19.891-72.041,0s-19.895-52.153,0-72.044s52.149-19.891,72.041,0
		C245.652,208.661,245.652,240.922,225.761,260.814z"/>
</g>
<path style="fill:#49A0AE;" d="M226.745,306.426c1.949,0.73,30.686-26.106,28.655-26.106c-12.774,0-25.553-4.778-35.423-14.331
	c-0.075-0.075-0.299-0.292-0.225-0.221c0.468,0.453-8.651,5.429-15.147,7.57c-7.85,2.593-17.16,2.294-17.16,2.294
	c2.851,4.172,6.133,8.15,9.841,11.854C205.926,296.129,216.002,302.438,226.745,306.426z"/>
<path style="fill:#459CA5;" d="M215.123,260.443c-10.084,3.996-20.628,7.008-31.517,8.917c1.029,1.856,2.122,3.682,3.311,5.467
	c2.952,4.445,6.383,8.659,10.29,12.576l22.092-22.091c-0.281-0.284-0.558-0.561-0.831-0.857
	C217.252,263.175,216.178,261.817,215.123,260.443z"/>
<path style="fill:#DD9081;" d="M153.72,188.773c19.813-19.813,51.869-19.88,71.782-0.236l22.08-22.077
	c-32.112-31.85-83.951-31.783-115.965,0.236c-29.126,29.122-31.727,74.615-7.996,106.779c-7.169,7.154-19.596,19.345-19.596,19.345
	c-5.175-5.175-10.043-10.043-13.036-13.036c-7.577-7.577-15.757-22.013-27.846-9.923c-12.12,12.123,2.451,20.389,10.05,27.985
	c2.84,2.844,12.774,13.036,12.774,13.036c-5.298,5.298-1.504,1.504-4.561,4.569c-7.502,7.499-26.915,20.834-15.626,32.827
	l87.707-87.726C133.836,240.646,133.904,208.582,153.72,188.773z"/>
<g>
</g>
<g>
</g>
<g>
</g>
<g>
</g>
<g>
</g>
<g>
</g>
<g>
</g>
<g>
</g>
<g>
</g>
<g>
</g>
<g>
</g>
<g>
</g>
<g>
</g>
<g>
</g>
<g>
</g>
</svg>
